<svg width="29" height="32" viewBox="0 0 29 32" fill="none" xmlns="http://www.w3.org/2000/svg">
<path d="M15.1766 17.1299L23.2603 14.6979C25.1857 14.1186 27.1247 15.5601 27.1247 17.5707V27.4961C27.1247 29.153 25.7815 30.4961 24.1247 30.4961H4.5C2.84314 30.4961 1.5 29.153 1.5 27.4961V17.5707C1.5 15.5601 3.43899 14.1186 5.36432 14.6979M15.1766 17.1299C14.6129 17.2995 14.0117 17.2995 13.448 17.1299L5.36432 14.6979M15.1766 17.1299L20.5631 15.5088L20.5621 15.5068L15.1774 17.1269C14.6137 17.2965 14.0115 17.2965 13.4479 17.1269L8.76818 15.7187L9.60118 7.81149C9.71705 6.71331 10.7011 5.91077 11.8002 6.0179M5.36432 14.6979C4.76974 14.519 4.17406 14.5334 3.63439 14.6972L2.12657 5.74314C1.9431 4.65393 2.67881 3.63231 3.77013 3.46189L16.1793 1.52439C17.2705 1.35424 18.3044 2.09936 18.4879 3.18845L19.0836 6.72751L11.8002 6.0179M11.8002 6.0179L23.4877 7.15852C24.587 7.26581 25.3845 8.24366 25.2689 9.34212L24.7123 14.6253C24.2494 14.5323 23.7542 14.548 23.2601 14.6966L15.1771 17.1282C14.6134 17.2979 14.0113 17.2979 13.4476 17.1282L8.76793 15.72L9.60094 7.81282C9.71674 6.71459 10.701 5.91081 11.8002 6.0179Z" stroke="white" stroke-width="3"/>
</svg>
